<?xml version="1.0" encoding="utf-8"?>
<!-- Generator: Adobe Illustrator 18.0.0, SVG Export Plug-In . SVG Version: 6.00 Build 0)  -->
<!DOCTYPE svg PUBLIC "-//W3C//DTD SVG 1.1//EN" "http://www.w3.org/Graphics/SVG/1.1/DTD/svg11.dtd">
<svg version="1.1" xmlns="http://www.w3.org/2000/svg" xmlns:xlink="http://www.w3.org/1999/xlink" x="0px" y="0px"
	 viewBox="0 0 400 248" enable-background="new 0 0 400 248" xml:space="preserve">
<g id="Layer_3">
</g>
<g id="Layer_2" display="none">
	<image display="inline" overflow="visible" width="400" height="248" xlink:href="DE0E7E43.jpg" >
	</image>
</g>
<g id="Layer_1">
	<g>
		<polygon fill="#FFFFFF" points="60.3,67.3 44.8,150 28.3,67.3 0.3,67.3 27.2,180.8 59.8,180.8 88.5,67.3 		"/>
		<path fill="#FFFFFF" d="M148.3,180.8h26.6L146.8,67.3h-32.1L86.5,180.8h25.3l4.9-21.2H143L148.3,180.8z M119.6,140.9l10.5-49.6
			l10.6,49.6H119.6z"/>
		<path fill="#FFFFFF" d="M234,140.9c0,0,0,18.6-13,18.6s-13.6-18.6-13.6-18.6V67.3h-25.9v77.4c0,0-1.5,39,38.3,39
			c42.5,0,38.8-42.3,38.8-48.5s0.2-67.9,0.2-67.9h-25L234,140.9z"/>
		<polygon fill="#FFFFFF" points="303.3,67.3 278.3,67.3 278.3,180.7 334.2,180.7 334.2,157.3 303.3,157.3 		"/>
		<polygon fill="#FFFFFF" points="332.8,67.3 332.8,88.4 353.3,88.4 353.3,180.7 378.5,180.7 378.5,88.4 400,88.4 400,67.3 		"/>
		<rect x="141.5" y="45.4" fill="#FFFFFF" width="117.2" height="2.4"/>
		<rect x="141.5" y="202" fill="#FFFFFF" width="117.2" height="2.4"/>
		<polygon fill="#FFFFFF" points="184.7,23.5 187.4,23.5 187.4,2.7 191.7,2.7 191.7,0 180.4,0 180.4,2.7 184.7,2.7 		"/>
		<polygon fill="#FFFFFF" points="196.5,12.6 202,12.6 202,23.6 204.7,23.6 204.7,0.2 202,0.2 202,10 196.5,10 196.5,0.2 193.9,0.2 
			193.9,23.6 196.5,23.6 		"/>
		<polygon fill="#FFFFFF" points="218.3,23.8 218.3,21.1 211.3,21.1 211.3,12.6 218.3,12.6 218.3,10 211.3,10 211.3,3 218.3,3 
			218.3,0.3 211.3,0.3 208.7,0.3 208.7,3 208.7,10 208.7,12.6 208.7,21.1 208.7,23.8 211.3,23.8 		"/>
		<polygon fill="#FFFFFF" points="203,223.6 203,226 203,247 205.6,247 205.6,237.1 211,237.1 211,234.5 205.6,234.5 205.6,226 
			212.6,226 212.6,223.3 203,223.3 		"/>
		<path fill="#FFFFFF" d="M193.6,226.3c2,0,3.1,2.2,3.2,2.3l0.6,1.2l2.5-1.1l-0.6-1.2c-0.1-0.2-1.8-3.9-5.6-3.9h0
			c-0.3,0-2.5,0-4.2,1.6c-1.1,1.1-1.7,2.6-1.7,4.4c0,3.8,2.8,5.2,5,6.3c2.5,1.2,3.9,2,3.9,4.5c0,2.9-1.5,4.2-3,4.4
			c-1.3,0.2-2.9-0.5-3.6-2.4l-0.4-1.3l-2.6,0.8l0.4,1.3c0.9,2.6,3.1,4.3,5.6,4.3c0.3,0,0.6,0,0.9-0.1c2.6-0.4,5.2-2.8,5.2-7.1
			c0-4.3-3-5.8-5.4-7c-2.3-1.1-3.5-1.8-3.5-3.8c0-1.1,0.3-1.9,0.9-2.5C192.2,226.3,193.6,226.4,193.6,226.3z"/>
	</g>
</g>
</svg>
